Charlies Angels-1,2(2000-2003)Ext.Cut Collection Edition 1080p BDRip[Hindi-Eng]AC3-DGrea8


Summary:-

                        ----Charlie's Angels-1(2000)----

The captivating crime-fighting trio who are the masters of disguise, espionage and martial arts. When a devious mastermind embroils them in a plot to destroy individual privacy the Angels, aided by their loyal sidekick Bosley, set out to bring down the bad guys. But when a terrible secret is revealed it makes the Angels targets for assassination.

                 
                 ----Charlie's Angels-2 Full Throttle(2003)----

The Angels--Natalie, Dylan, and Alex are back again but this time they're preparing for a strike without even warning as they go undercover to retrieve two missing silver bands. These are no ordinary rings. They contain valuable encrypted information that reveal the new identities of every person in the Federal Witness Protection Program. When witnesses start turning up dead, only the Angels, using their expertise as masters of disguise, espionage and martial arts can stop the perpetrator, a mysterious "fallen" Angel. Aided by their trusty colleague, Jimmy Bosley, the Angels' adventure begins at a remote Mongolian outpost and ends only after Dylan is forced to face a dark secret from her past--a secret that puts the lives of her two best friends in danger.


Cast:-

----Charlie's Angels-1(2000)----


Cameron Diaz	 ...	Natalie Cook
Drew Barrymore	 ...	Dylan Sanders
Lucy Liu	 ...	Alex Munday
Bill Murray	 ...	John Bosley
Sam Rockwell	 ...	Eric Knox
Kelly Lynch	 ...	Vivian Wood
Tim Curry	 ...	Roger Corwin
Crispin Glover	 ...	Thin Man
Matt LeBlanc	 ...	Jason Gibbons
LL Cool J	 ...	Mr. Jones
Tom Green	 ...	Chad
Luke Wilson	 ...	Pete Komisky
Sean Whalen	 ...	Pasqual
Tim Dunaway	 ...	Flight Attendant
Alex Trebek	 ...	Himself



----Charlie's Angels-2 Full Throttle(2003)-----

Cameron Diaz	 ...	Natalie Cook
Drew Barrymore	 ...	Dylan Sanders
Lucy Liu	 ...	Alex Munday
Bernie Mac	 ...	Jimmy Bosley
Crispin Glover	 ...	Thin Man
Justin Theroux	 ...	Seamus O'Grady
Robert Patrick	 ...	Ray Carter
Demi Moore	 ...	Madison Lee
Rodrigo Santoro	 ...	Randy Emmers
Shia LaBeouf	 ...	Max
Matt LeBlanc	 ...	Jason
Luke Wilson	 ...	Pete
John Cleese	 ...	Mr. Munday
Ja'net DuBois	 ...	Momma Bosley
Cheung-Yan Yuen	 ...	Deranged Mongol



Video & Audio Info.:-

----Charlie's Angels-1(2000)----

Video
ID : 1
Format : AVC
Format/Info : Advanced Video Codec
Format profile : Main@L4.0
Format settings, CABAC : Yes
Format settings, ReFrames : 4 frames
Muxing mode : Header stripping
Codec ID : V_MPEG4/ISO/AVC
Duration : 1h 34mn
Bit rate : 2 500 Kbps
Width : 1 920 pixels
Height : 800 pixels
Display aspect ratio : 2.40:1
Frame rate mode : Variable
Frame rate : 25.000 fps
Color space : YUV
Chroma subsampling : 4:2:0
Bit depth : 8 bits
Scan type : Progressive
Bits/(Pixel*Frame) : 0.065
Stream size : 1.63 GiB (79%))

Audio #1
ID : 2
Format : AC-3
Format/Info : Audio Coding 3
Mode extension : CM (complete main)
Muxing mode : Header stripping
Codec ID : A_AC3
Duration : 1h 34mn
Bit rate mode : Constant
Bit rate : 384 Kbps
Channel(s) : 6 channels
Channel positions : Front: L C R, Side: L R, LFE
Sampling rate : 48.0 KHz
Bit depth : 16 bits
Compression mode : Lossy
Stream size : 259 MiB (12%)
Language : English

Audio #2
ID : 3
Format : MPEG Audio
Format version : Version 1
Format profile : Layer 2
Muxing mode : Header stripping
Codec ID : A_MPEG/L2
Codec ID/Hint : MP2
Duration : 1h 34mn
Bit rate mode : Constant
Bit rate : 224 Kbps
Channel(s) : 2 channels
Sampling rate : 48.0 KHz
Compression mode : Lossy
Delay relative to video : 30s 0ms
Stream size : 151 MiB (7%)
Language : Hindi

Subtitle Languages : English


Genres: Action | Adventure | Comedy | Crime | Thriller


----Charlie's Angels-2 Full Throttle(2003)


Video
ID : 1
Format : AVC
Format/Info : Advanced Video Codec
Format profile : Main@L4.0
Format settings, CABAC : Yes
Format settings, ReFrames : 4 frames
Muxing mode : Header stripping
Codec ID : V_MPEG4/ISO/AVC
Duration : 1h 43mn
Bit rate : 2 448 Kbps
Width : 1 920 pixels
Height : 800 pixels
Display aspect ratio : 2.40:1
Frame rate mode : Variable
Frame rate : 25.000 fps
Color space : YUV
Chroma subsampling : 4:2:0
Bit depth : 8 bits
Scan type : Progressive
Bits/(Pixel*Frame) : 0.064
Stream size : 1.68 GiB (75%)

Audio #1
ID : 2
Format : AC-3
Format/Info : Audio Coding 3
Mode extension : CM (complete main)
Muxing mode : Header stripping
Codec ID : A_AC3
Duration : 1h 43mn
Bit rate mode : Constant
Bit rate : 448 Kbps
Channel(s) : 6 channels
Channel positions : Front: L C R, Side: L R, LFE
Sampling rate : 48.0 KHz
Bit depth : 16 bits
Compression mode : Lossy
Stream size : 331 MiB (14%)
Language : English

Audio #2
ID : 3
Format : AC-3
Format/Info : Audio Coding 3
Mode extension : CM (complete main)
Muxing mode : Header stripping
Codec ID : A_AC3
Duration : 1h 43mn
Bit rate mode : Constant
Bit rate : 256 Kbps
Channel(s) : 6 channels
Channel positions : Front: L C R, Side: L R, LFE
Sampling rate : 48.0 KHz
Bit depth : 16 bits
Compression mode : Lossy
Delay relative to video : 2s 500ms
Stream size : 189 MiB (8%)
Language : Hindi

Subtitle Languages : English


Genres: Action | Adventure | Comedy | Crime




Screen Shoots:-
  
http://www.shotpix.com/images/31419569243706583663.jpg
 
http://www.shotpix.com/images/93987220071959866477.jpg
 
http://www.shotpix.com/images/35593678999545382502.jpg
 
http://www.shotpix.com/images/02868193898638069024.jpg
 
http://www.shotpix.com/images/59875154760972317069.jpg
 
http://www.shotpix.com/images/42789389677131713718.jpg


Note:--

 Check The Sample Video In This Torrent	